<svg width="40" height="58" viewBox="0 0 40 58" fill="none" xmlns="http://www.w3.org/2000/svg">
<path fill-rule="evenodd" clip-rule="evenodd" d="M20.0008 27.135C16.2623 27.135 13.2216 24.0267 13.2216 20.206C13.2216 16.3853 16.2623 13.277 20.0008 13.277C23.7392 13.277 26.7815 16.3853 26.7815 20.206C26.7815 24.0267 23.7392 27.135 20.0008 27.135ZM20.0008 7.98942C13.3295 7.98942 7.90156 13.4696 7.90156 20.206C7.90156 26.9424 13.3295 32.4226 20.0008 32.4226C26.6728 32.4226 32.1015 26.9424 32.1015 20.206C32.1015 13.4696 26.6728 7.98942 20.0008 7.98942ZM19.9977 57C17.9434 54.7339 14.6975 50.9571 11.4644 46.3999C4.61836 36.7501 1 28.0988 1 21.3814C1 2.46995 15.5426 1 20 1C37.6297 1 39 16.5999 39 21.3814C39 34.6811 25.3861 51.0447 19.9977 57Z" fill="#BE6361"/>
<path d="M11.4644 46.3999L12.28 45.8213L12.28 45.8213L11.4644 46.3999ZM20.0008 26.135C16.8351 26.135 14.2216 23.4951 14.2216 20.206H12.2216C12.2216 24.5582 15.6895 28.135 20.0008 28.135V26.135ZM14.2216 20.206C14.2216 16.9169 16.8351 14.277 20.0008 14.277V12.277C15.6895 12.277 12.2216 15.8538 12.2216 20.206H14.2216ZM20.0008 14.277C23.1667 14.277 25.7815 16.9172 25.7815 20.206H27.7815C27.7815 15.8535 24.3117 12.277 20.0008 12.277V14.277ZM25.7815 20.206C25.7815 23.4948 23.1667 26.135 20.0008 26.135V28.135C24.3117 28.135 27.7815 24.5585 27.7815 20.206H25.7815ZM20.0008 6.98942C12.7681 6.98942 6.90156 12.9264 6.90156 20.206H8.90156C8.90156 14.0128 13.8908 8.98942 20.0008 8.98942V6.98942ZM6.90156 20.206C6.90156 27.4856 12.7681 33.4226 20.0008 33.4226V31.4226C13.8908 31.4226 8.90156 26.3992 8.90156 20.206H6.90156ZM20.0008 33.4226C27.234 33.4226 33.1015 27.4857 33.1015 20.206H31.1015C31.1015 26.3991 26.1116 31.4226 20.0008 31.4226V33.4226ZM33.1015 20.206C33.1015 12.9263 27.234 6.98942 20.0008 6.98942V8.98942C26.1116 8.98942 31.1015 14.0129 31.1015 20.206H33.1015ZM20.7386 56.3284C18.7017 54.0814 15.4832 50.3363 12.28 45.8213L10.6488 46.9785C13.9118 51.5778 17.1852 55.3864 19.2568 57.6716L20.7386 56.3284ZM12.28 45.8213C5.47331 36.2269 2 27.7859 2 21.3814H0C0 28.4118 3.76342 37.2732 10.6488 46.9785L12.28 45.8213ZM2 21.3814C2 12.2277 5.49372 7.4648 9.37432 4.93679C13.329 2.36048 17.8489 2 20 2V0C17.6937 0 12.7136 0.374489 8.28263 3.26101C3.77758 6.19582 0 11.6236 0 21.3814H2ZM20 2C28.4471 2 32.8684 5.69964 35.2409 9.89028C37.6607 14.1644 38 19.053 38 21.3814H40C40 18.9282 39.6542 13.6261 36.9814 8.90496C34.2613 4.1003 29.1826 0 20 0V2ZM38 21.3814C38 27.7373 34.727 34.9514 30.6724 41.4134C26.639 47.8417 21.931 53.3728 19.2562 56.3291L20.7392 57.6709C23.4528 54.6719 28.246 49.0435 32.3666 42.4763C36.4661 35.9427 40 28.3252 40 21.3814H38Z" fill="black"/>
</svg>
